# xmcd
#
# Track frame offsets:
#	150
#	10875
#	22239
#	35295
#	43402
#	59071
#	69680
#	81230
#	91641
#	105503
#
# Disc length: 1577 seconds
#
# Revision: 0
# Processed by: cddbd v1.5.2PL0 Copyright (c) Steve Scherf et al.
# Submitted via: EasyCDDAExtractor 10.2.0.1
#
DISCID=8306270a
DTITLE=Susie Betts - Smoky Mountain Reflections
DYEAR=1998
DGENRE=Gospel
TTITLE0=I'll Fly Away
TTITLE1=Little Mountain Church
TTITLE2=Amazing Grace
TTITLE3=I'm Ready To Go
TTITLE4=Someday Parade
TTITLE5=I Saw The Light
TTITLE6=Darkest Hour
TTITLE7=Living In The Name
TTITLE8=Satan's Jewel Crown
TTITLE9=Life's Railway
EXTD=
EXTT0=
EXTT1=
EXTT2=
EXTT3=
EXTT4=
EXTT5=
EXTT6=
EXTT7=
EXTT8=
EXTT9=
PLAYORDER=
